<svg width="97" height="34" viewBox="0 0 97 34" fill="none" xmlns="http://www.w3.org/2000/svg">
<path d="M16.4998 15.3914V24.9947C16.4998 25.5583 16.3349 26.0092 16.0051 26.3022C15.6753 26.6178 15.2277 26.7531 14.6387 26.7531C14.0733 26.7531 13.6257 26.5953 13.2958 26.2797C12.966 25.9641 12.8011 25.5358 12.8011 24.9947V15.5718C12.8011 14.0388 12.4949 12.9342 11.9059 12.2129C11.3169 11.4915 10.3746 11.1308 9.1024 11.1308C7.6182 11.1308 6.41671 11.6042 5.49792 12.5285C4.60269 13.4753 4.13151 14.7151 4.13151 16.2931V24.9722C4.13151 25.5132 3.9666 25.9415 3.63678 26.2571C3.30696 26.5728 2.85935 26.7306 2.29394 26.7306C1.72853 26.7306 1.28091 26.5728 0.927532 26.2571C0.574151 25.9415 0.409241 25.5132 0.409241 24.9722V9.93601C0.409241 9.41752 0.59771 8.98921 0.951091 8.65106C1.30447 8.31292 1.75209 8.15511 2.29394 8.15511C2.83579 8.15511 3.25984 8.31291 3.56611 8.62852C3.87237 8.94412 4.03728 9.37244 4.03728 9.89093V11.4013C4.62625 10.3192 5.4508 9.48515 6.48738 8.92157C7.54753 8.358 8.72546 8.06494 10.0447 8.06494C14.356 8.11003 16.4998 10.5221 16.4998 15.3914Z" fill="white"/>
<path d="M34.9226 22.4476C35.1347 22.7181 35.2524 23.0563 35.2524 23.4846C35.2524 24.206 34.8048 24.7921 33.9332 25.288C33.085 25.784 32.1427 26.1672 31.1297 26.4377C30.1167 26.7083 29.1507 26.8435 28.2084 26.8435C25.3814 26.8435 23.1433 26.0094 21.4942 24.3412C19.8451 22.6731 19.0441 20.3962 19.0441 17.5333C19.0441 15.6847 19.3974 14.0391 20.1278 12.6189C20.8581 11.1987 21.8711 10.0715 23.1668 9.30505C24.4861 8.51605 25.9703 8.13281 27.6194 8.13281C30.0224 8.13281 31.9071 8.89928 33.2971 10.4547C34.687 12.0102 35.3938 14.1067 35.3938 16.7442C35.3938 17.7361 34.9462 18.2321 34.0745 18.2321H22.7428C22.9784 22.0419 24.8159 23.958 28.2084 23.958C29.1036 23.958 29.9046 23.8453 30.5643 23.5973C31.2239 23.3493 31.9307 23.0337 32.661 22.628C32.7317 22.5829 32.9437 22.4702 33.2735 22.3124C33.6033 22.1546 33.886 22.0644 34.0981 22.0644C34.4043 22.0419 34.687 22.1771 34.9226 22.4476ZM24.2741 12.2131C23.426 13.1148 22.9077 14.3998 22.7428 16.0454H32.1898C32.1191 14.3772 31.6951 13.0923 30.9177 12.1906C30.1402 11.2888 29.0565 10.838 27.6666 10.838C26.2766 10.838 25.1222 11.2888 24.2741 12.2131Z" fill="white"/>
<path d="M54.9712 25.0624C54.9712 25.5358 54.8063 25.9415 54.4764 26.2571C54.1466 26.5953 53.7461 26.7531 53.2749 26.7531C52.8038 26.7531 52.3797 26.5502 52.0028 26.1219L46.3958 19.7648L40.8124 26.1219C40.4119 26.5502 39.9878 26.7531 39.5402 26.7531C39.069 26.7531 38.6685 26.5727 38.3387 26.2346C38.0089 25.8965 37.844 25.4907 37.844 25.0173C37.844 24.5439 38.0089 24.1381 38.3623 23.7549L44.1577 17.3301L38.645 11.1533C38.268 10.725 38.1031 10.3192 38.1031 9.89092C38.1031 9.41752 38.2681 9.01174 38.6214 8.69614C38.9748 8.35799 39.3518 8.2002 39.7994 8.2002C40.2705 8.2002 40.6946 8.40308 41.0715 8.8314L46.3958 14.8955L51.7201 8.8314C52.1206 8.40308 52.5446 8.2002 53.0394 8.2002C53.487 8.2002 53.8639 8.35799 54.2173 8.69614C54.5707 9.03428 54.7356 9.44006 54.7356 9.89092C54.7356 10.3643 54.5471 10.7701 54.1937 11.1533L48.681 17.3301L54.4293 23.7549C54.7827 24.1381 54.9712 24.5664 54.9712 25.0624Z" fill="white"/>
<path d="M69.0827 24.3411C69.3182 24.5666 69.436 24.9047 69.436 25.3105C69.436 25.8064 69.2476 26.1897 68.8706 26.4377C68.4937 26.6856 67.9283 26.7983 67.198 26.7533L66.2085 26.6856C64.2296 26.5278 62.7454 25.9192 61.7795 24.8596C60.79 23.7776 60.3188 22.1996 60.3188 20.1031V11.424H58.1043C57.0206 11.424 56.4788 10.9506 56.4788 9.98126C56.4788 9.5304 56.6201 9.19225 56.9028 8.92173C57.1855 8.67376 57.586 8.5385 58.1043 8.5385H60.2953V4.72873C60.2953 4.16516 60.4602 3.7143 60.79 3.39869C61.1198 3.08309 61.5674 2.92529 62.1328 2.92529C62.6983 2.92529 63.1459 3.08309 63.4992 3.39869C63.8526 3.7143 64.0175 4.16516 64.0175 4.72873V8.5385H67.6456C68.1639 8.5385 68.5644 8.67376 68.8471 8.92173C69.1298 9.1697 69.2711 9.5304 69.2711 9.98126C69.2711 10.4547 69.1298 10.8153 68.8471 11.0633C68.5644 11.3113 68.1639 11.424 67.6456 11.424H63.994V20.3736C63.994 21.5233 64.2296 22.3799 64.7007 22.9209C65.1719 23.462 65.9022 23.7776 66.8917 23.8452L67.9283 23.9128C68.4701 23.9579 68.8471 24.1157 69.0827 24.3411Z" fill="white"/>
<path d="M72.6408 26.325C72.2874 26.032 72.0989 25.5811 72.0989 24.995V2.15891C72.0989 1.57279 72.2874 1.12193 72.6408 0.806329C72.9942 0.490727 73.4418 0.355469 73.9836 0.355469C74.5255 0.355469 74.9731 0.51327 75.3029 0.806329C75.6563 1.12193 75.8212 1.57279 75.8212 2.15891V24.995C75.8212 25.5811 75.6563 26.032 75.3029 26.325C74.9495 26.6181 74.5255 26.7759 73.9836 26.7759C73.4418 26.7533 72.9942 26.6181 72.6408 26.325Z" fill="white"/>
<path d="M94.3381 8.47112C94.6208 8.29077 94.9271 8.22314 95.2333 8.22314C95.7045 8.22314 96.105 8.38095 96.4584 8.69655C96.8118 9.01215 97.0002 9.39538 97.0002 9.84624C97.0002 10.0942 96.9531 10.3196 96.8589 10.5451L86.658 32.3442C86.5166 32.6823 86.3046 32.9528 86.0219 33.1332C85.7392 33.3135 85.4329 33.4037 85.1267 33.4037C84.679 33.4037 84.2785 33.2459 83.9252 32.9528C83.5718 32.6598 83.3833 32.2991 83.3833 31.8482C83.3833 31.6453 83.454 31.3974 83.5718 31.1043L86.0926 25.6714L79.025 10.5225C78.9307 10.3196 78.8836 10.0942 78.8836 9.86879C78.8836 9.39539 79.0721 9.01215 79.4726 8.69655C79.8731 8.38095 80.2971 8.22314 80.7919 8.22314C81.5222 8.22314 82.0405 8.56129 82.3703 9.26012L88.0479 21.9744L93.702 9.30521C93.8434 8.92198 94.079 8.65146 94.3381 8.47112Z" fill="white"/>
</svg>
