<svg width="137" height="98" viewBox="0 0 137 98" fill="none" xmlns="http://www.w3.org/2000/svg">
<path d="M38.3718 97.9999C38.3234 97.9995 38.2757 97.9891 38.2316 97.9694C38.1875 97.9497 38.1479 97.9211 38.1153 97.8854L0.950335 59.2126L0.943466 59.2046V59.1931C0.901526 59.1459 0.870627 59.09 0.853018 59.0294C0.854589 59.025 0.854589 59.0201 0.853018 59.0157C0.839379 58.9499 0.842734 58.8817 0.862768 58.8176C0.882801 58.7535 0.91885 58.6956 0.967509 58.6493L59.3122 0.332069L75.0433 12.0102L79.1982 7.01835L97.9633 7.46372L116.786 3.47142L116.428 10.9133L106.659 16.6963L117.993 17.1325L118.319 44.2669L97.2523 49.0755L13.9634 57.9795L117.12 52.9762H117.141C117.208 52.976 117.274 52.9943 117.332 53.029C117.389 53.0637 117.437 53.1136 117.468 53.1732L136.931 90.8121C136.953 90.8533 136.967 90.8984 136.971 90.9449C136.975 90.9913 136.969 91.0381 136.954 91.0823C136.94 91.1274 136.916 91.169 136.885 91.2048C136.854 91.2405 136.816 91.2698 136.773 91.2907C136.72 91.3164 136.662 91.3297 136.603 91.3296L128.621 91.2529C128.582 91.2505 128.544 91.2451 128.506 91.2369L115.785 87.2217C115.748 87.2096 115.709 87.2034 115.67 87.2034C115.595 87.2026 115.521 87.2255 115.46 87.2688C115.398 87.3121 115.352 87.3738 115.327 87.445C115.316 87.4781 115.31 87.5129 115.31 87.548L115.179 90.9965C115.174 91.0859 115.136 91.1703 115.073 91.2336C115.01 91.2969 114.925 91.3348 114.836 91.3399L89.4108 92.5055H89.3913C89.3525 92.5053 89.3139 92.4995 89.2768 92.4883L84.6972 90.9381C84.6578 90.9245 84.6164 90.9175 84.5747 90.9175C84.5171 90.9173 84.4604 90.9305 84.4089 90.9561C84.3574 90.9818 84.3126 91.0191 84.2781 91.0652L82.1028 94.0064C82.0528 94.077 81.9779 94.1261 81.8933 94.1438L66.8194 97.6496C66.7893 97.6564 66.7586 97.6599 66.7278 97.6599C66.6825 97.6599 66.6376 97.6522 66.595 97.637L59.7576 94.8892C59.7023 94.8656 59.6421 94.8562 59.5823 94.8617C59.5225 94.8672 59.465 94.8875 59.4151 94.9208C59.3651 94.9541 59.3242 94.9993 59.296 95.0523C59.2679 95.1054 59.2534 95.1646 59.2538 95.2246L59.2893 97.3748C59.2904 97.4217 59.282 97.4684 59.2647 97.5121C59.2474 97.5557 59.2215 97.5955 59.1885 97.6289C59.1558 97.6638 59.1165 97.6918 59.0729 97.7115C59.0292 97.7311 58.9822 97.742 58.9344 97.7434L38.3889 97.9999H38.3718ZM55.7057 61.9478L37.9081 63.656L39.5109 95.8463L56.9365 95.6574L56.9766 90.416L43.7906 90.7079C43.7792 90.5064 42.4728 68.033 42.4431 67.7239C42.4431 67.7353 42.5118 67.741 42.632 67.741C44.228 67.741 55.3554 66.7106 55.8282 66.6705L55.7137 61.9466L55.7057 61.9478ZM61.096 61.823L61.8711 91.4155L66.8663 95.2258L80.7701 92.0395L82.9157 89.1646L81.9036 63.1969L78.2181 59.8263L78.012 59.8514C74.1949 60.3094 61.6936 61.823 61.1154 61.823H61.096ZM91.2174 57.0624L86.9561 57.8272L88.3838 86.0424L89.9867 90.0416L104.908 89.2917L105.146 84.4831L92.5604 85.628L91.2174 57.0613V57.0624ZM124.175 77.9296L129.111 89.0352L133.69 89.2241L116.092 55.2661H111.274L109.549 88.9139L113.118 88.7925L113.475 78.9257L124.175 77.9285V77.9296ZM60.4216 3.5195L56.2599 47.3994L72.1924 39.4148L74.5086 13.8832L60.4262 3.52065L60.4216 3.5195ZM111.986 22.7368L112.465 38.9064L97.3015 41.4653L97.187 45.8343L116.033 41.6531L115.974 18.8029L101.045 18.3072V13.0612L114.305 8.68992V5.69484L98.7258 8.87769L97.4801 22.7998L111.986 22.7368ZM80.2183 8.75862C80.1038 8.93951 77.7636 41.3279 77.664 42.7064V42.7201L90.029 43.0968V39.2281L81.7067 39.0392L82.0032 31.1142L92.2879 31.3592L92.4081 26.9856L82.539 26.8631L83.6129 13.4986L93.8977 13.3726L93.8393 9.06545L80.2183 8.75862ZM67.0976 90.977L65.4455 88.9276L64.9932 65.6264L76.9461 64.1162L78.5959 65.8015L79.6538 87.3259L77.5289 89.6157L67.0976 90.9816V90.977ZM114.068 75.6844L114.484 58.1501L122.451 75.3181L114.07 75.6901L114.068 75.6844ZM60.3621 41.3371L63.5713 11.5522C63.5804 11.5522 63.6468 11.5934 63.7636 11.6598C66.7553 13.3531 71.778 16.2166 71.778 16.3631C71.778 16.544 69.7847 36.7311 69.7 37.5898L60.3678 41.3359L60.3621 41.3371Z" fill="#333333"/>
</svg>
